name analog
datacolumns 19
datarows 46
range 0.166 0.1885
endheader
time	ground_force_vx	ground_force_vy	ground_force_vz	ground_force_px	ground_force_py	ground_force_pz	l_ground_force_vx	l_ground_force_vy	l_ground_force_vz	l_ground_force_px	l_ground_force_py	l_ground_force_pz	ground_torque_x	ground_torque_y	ground_torque_z	l_ground_torque_x	l_ground_torque_y	l_ground_torque_z
0.166	-0.0	-0.0	-0.0	-0.0	-0.0	-0.0	-10.072968482971191	-5.082772731781006	-764.5895385742188	-0.0	-0.0	-0.0	-0.0	-0.0	-0.0	261480.46875	-9946.8154296875	-3861.907958984375
0.1665	-0.0	-0.0	-0.0	-0.0	-0.0	-0.0	-9.88248348236084	-4.363192558288574	-766.9815063476562	-0.0	-0.0	-0.0	-0.0	-0.0	-0.0	262429.3125	-10066.408203125	-3830.356689453125
0.167	-0.0	-0.0	-0.0	-0.0	-0.0	-0.0	-9.79396629333496	-3.205929756164551	-768.4306030273438	-0.0	-0.0	-0.0	-0.0	-0.0	-0.0	262907.4375	-9627.908203125	-3899.503662109375
0.1675	-0.0	-0.0	-0.0	-0.0	-0.0	-0.0	-9.593936920166016	-2.927730083465576	-768.62451171875	-0.0	-0.0	-0.0	-0.0	-0.0	-0.0	262892.0625	-9369.244140625	-3939.670166015625
0.168	-0.0	-0.0	-0.0	-0.0	-0.0	-0.0	-9.84689712524414	-3.683426141738892	-766.931396484375	-0.0	-0.0	-0.0	-0.0	-0.0	-0.0	262913.0	-9066.935546875	-3982.919921875
0.1685	-0.0	-0.0	-0.0	-0.0	-0.0	-0.0	-10.073875427246094	-3.795195817947388	-764.9503173828125	-0.0	-0.0	-0.0	-0.0	-0.0	-0.0	262436.1875	-8888.3876953125	-4118.33740234375
0.169	-0.0	-0.0	-0.0	-0.0	-0.0	-0.0	-10.316415786743164	-3.3045222759246826	-761.6614990234375	-0.0	-0.0	-0.0	-0.0	-0.0	-0.0	261680.609375	-8206.123046875	-4046.826904296875
0.1695	-0.0	-0.0	-0.0	-0.0	-0.0	-0.0	-10.353301048278809	-3.1409592628479004	-759.4994506835938	-0.0	-0.0	-0.0	-0.0	-0.0	-0.0	261217.5	-8407.34765625	-4169.17138671875
0.17	-0.0	-0.0	-0.0	-0.0	-0.0	-0.0	-10.290451049804688	-3.0029373168945312	-755.862548828125	-0.0	-0.0	-0.0	-0.0	-0.0	-0.0	260716.4375	-8553.9951171875	-4190.7109375
0.1705	-0.0	-0.0	-0.0	-0.0	-0.0	-0.0	-10.252058029174805	-2.712489366531372	-753.7680053710938	-0.0	-0.0	-0.0	-0.0	-0.0	-0.0	260105.5625	-8312.037109375	-4089.0712890625
0.171	-0.0	-0.0	-0.0	-0.0	-0.0	-0.0	-9.657259941101074	-1.6908053159713743	-751.374267578125	-0.0	-0.0	-0.0	-0.0	-0.0	-0.0	259952.734375	-8570.5224609375	-4088.145751953125
0.1715	-0.0	-0.0	-0.0	-0.0	-0.0	-0.0	-9.453988075256348	-0.7822620868682861	-750.376708984375	-0.0	-0.0	-0.0	-0.0	-0.0	-0.0	259920.53125	-8783.7119140625	-4053.960693359375
0.17200000000000001	-0.0	-0.0	-0.0	-0.0	-0.0	-0.0	-9.289400100708008	0.0631998032331466	-748.6306762695312	-0.0	-0.0	-0.0	-0.0	-0.0	-0.0	259891.234375	-9124.0654296875	-3939.118896484375
0.17250000000000001	-0.0	-0.0	-0.0	-0.0	-0.0	-0.0	-8.845943450927734	0.9332672357559204	-748.1329956054688	-0.0	-0.0	-0.0	-0.0	-0.0	-0.0	260145.203125	-9307.5712890625	-3684.39501953125
0.17300000000000001	-0.0	-0.0	-0.0	-0.0	-0.0	-0.0	-7.362995147705078	1.6532278060913086	-747.7352294921875	-0.0	-0.0	-0.0	-0.0	-0.0	-0.0	260567.4375	-9882.001953125	-3577.449951171875
0.17350000000000002	-0.0	-0.0	-0.0	-0.0	-0.0	-0.0	-6.90700626373291	1.916656494140625	-746.88427734375	-0.0	-0.0	-0.0	-0.0	-0.0	-0.0	260608.03125	-10404.9755859375	-3178.477783203125
0.17400000000000002	-0.0	-0.0	-0.0	-0.0	-0.0	-0.0	-5.500068664550781	2.510003566741944	-746.5349731445312	-0.0	-0.0	-0.0	-0.0	-0.0	-0.0	260763.796875	-10891.3017578125	-2880.68603515625
0.17450000000000002	-0.0	-0.0	-0.0	-0.0	-0.0	-0.0	-4.854465007781982	3.015197277069092	-744.895751953125	-0.0	-0.0	-0.0	-0.0	-0.0	-0.0	261310.515625	-11605.404296875	-2553.794189453125
0.17500000000000002	-0.0	-0.0	-0.0	-0.0	-0.0	-0.0	-2.951986789703369	3.03957200050354	-744.5472412109375	-0.0	-0.0	-0.0	-0.0	-0.0	-0.0	261441.046875	-12190.28515625	-2149.4423828125
0.17550000000000002	-0.0	-0.0	-0.0	-0.0	-0.0	-0.0	-2.141263723373413	3.331921339035034	-744.10302734375	-0.0	-0.0	-0.0	-0.0	-0.0	-0.0	261358.578125	-12851.6376953125	-1742.6925048828125
0.176	-0.0	-0.0	-0.0	-0.0	-0.0	-0.0	-0.8787592053413391	3.584951400756836	-743.1527709960938	-0.0	-0.0	-0.0	-0.0	-0.0	-0.0	261410.09375	-13646.6484375	-1240.2818603515625
0.1765	-0.0	-0.0	-0.0	-0.0	-0.0	-0.0	0.8871078491210938	3.7215416431427	-740.1376342773438	-0.0	-0.0	-0.0	-0.0	-0.0	-0.0	261391.484375	-14512.2216796875	-909.9275512695312
0.177	-0.0	-0.0	-0.0	-0.0	-0.0	-0.0	2.2297842502593994	3.934002161026001	-741.2015991210938	-0.0	-0.0	-0.0	-0.0	-0.0	-0.0	261284.359375	-15453.1103515625	-596.2540893554688
0.1775	-0.0	-0.0	-0.0	-0.0	-0.0	-0.0	3.649105072021485	4.528226852416992	-738.7577514648438	-0.0	-0.0	-0.0	-0.0	-0.0	-0.0	260919.640625	-16181.81640625	-239.2291412353516
0.178	-0.0	-0.0	-0.0	-0.0	-0.0	-0.0	4.778480052947998	4.881392955780029	-737.7786254882812	-0.0	-0.0	-0.0	-0.0	-0.0	-0.0	260917.078125	-16705.64453125	233.9905242919922
0.1785	-0.0	-0.0	-0.0	-0.0	-0.0	-0.0	5.547388553619385	4.910680294036865	-735.1503295898438	-0.0	-0.0	-0.0	-0.0	-0.0	-0.0	260671.359375	-17854.048828125	547.0570068359375
0.179	-0.0	-0.0	-0.0	-0.0	-0.0	-0.0	6.1446075439453125	4.286360740661621	-734.917724609375	-0.0	-0.0	-0.0	-0.0	-0.0	-0.0	260349.390625	-18367.716796875	873.5952758789062
0.1795	-0.0	-0.0	-0.0	-0.0	-0.0	-0.0	6.410618782043457	4.95768404006958	-733.916748046875	-0.0	-0.0	-0.0	-0.0	-0.0	-0.0	259945.625	-18818.400390625	998.718017578125
0.18	-0.0	-0.0	-0.0	-0.0	-0.0	-0.0	5.542184352874756	5.464346885681152	-732.6576538085938	-0.0	-0.0	-0.0	-0.0	-0.0	-0.0	260045.078125	-19379.431640625	683.7072143554688
0.1805	-0.0	-0.0	-0.0	-0.0	-0.0	-0.0	5.010113716125488	5.675686359405518	-731.9130859375	-0.0	-0.0	-0.0	-0.0	-0.0	-0.0	260156.34375	-19591.263671875	428.0593566894531
0.181	-0.0	-0.0	-0.0	-0.0	-0.0	-0.0	4.54377555847168	5.994394302368164	-732.2616577148438	-0.0	-0.0	-0.0	-0.0	-0.0	-0.0	259966.796875	-20016.693359375	438.1472473144531
0.1815	-0.0	-0.0	-0.0	-0.0	-0.0	-0.0	4.02642297744751	6.436054229736328	-731.866943359375	-0.0	-0.0	-0.0	-0.0	-0.0	-0.0	259924.984375	-20199.486328125	568.1151123046875
0.182	-0.0	-0.0	-0.0	-0.0	-0.0	-0.0	4.201024532318115	6.236733913421631	-733.1734619140625	-0.0	-0.0	-0.0	-0.0	-0.0	-0.0	259690.0	-20697.994140625	641.9075927734375
0.1825	-0.0	-0.0	-0.0	-0.0	-0.0	-0.0	3.6484882831573486	5.786095142364502	-731.866455078125	-0.0	-0.0	-0.0	-0.0	-0.0	-0.0	259441.46875	-20954.12890625	786.0232543945312
0.183	-0.0	-0.0	-0.0	-0.0	-0.0	-0.0	3.4710183143615723	5.609258651733398	-730.2984008789062	-0.0	-0.0	-0.0	-0.0	-0.0	-0.0	259342.125	-21037.359375	915.9228515625
0.1835	-0.0	-0.0	-0.0	-0.0	-0.0	-0.0	3.481008529663086	5.917552947998047	-731.5657958984375	-0.0	-0.0	-0.0	-0.0	-0.0	-0.0	258757.140625	-21400.216796875	875.1119995117188
0.184	-0.0	-0.0	-0.0	-0.0	-0.0	-0.0	2.971507787704468	5.92866849899292	-732.4761962890625	-0.0	-0.0	-0.0	-0.0	-0.0	-0.0	258518.25	-21740.44140625	1015.929931640625
0.1845	-0.0	-0.0	-0.0	-0.0	-0.0	-0.0	2.506134271621704	6.414280891418457	-733.2621459960938	-0.0	-0.0	-0.0	-0.0	-0.0	-0.0	258335.046875	-22144.23046875	1089.9027099609375
0.185	-0.0	-0.0	-0.0	-0.0	-0.0	-0.0	2.8166515827178955	6.072199821472168	-733.0444946289062	-0.0	-0.0	-0.0	-0.0	-0.0	-0.0	258189.0625	-22897.751953125	1431.1134033203125
0.1855	-0.0	-0.0	-0.0	-0.0	-0.0	-0.0	3.0491528511047363	5.851125717163086	-734.4822387695312	-0.0	-0.0	-0.0	-0.0	-0.0	-0.0	257970.703125	-23698.80859375	1668.5177001953125
0.186	-0.0	-0.0	-0.0	-0.0	-0.0	-0.0	3.282299041748047	5.001675128936768	-737.2791137695312	-0.0	-0.0	-0.0	-0.0	-0.0	-0.0	258242.828125	-24492.287109375	2113.408203125
0.1865	-0.0	-0.0	-0.0	-0.0	-0.0	-0.0	3.780165195465088	3.864524602890015	-739.5458984375	-0.0	-0.0	-0.0	-0.0	-0.0	-0.0	257827.671875	-25191.783203125	2699.46533203125
0.187	-0.0	-0.0	-0.0	-0.0	-0.0	-0.0	4.379270553588867	2.264063835144043	-740.857177734375	-0.0	-0.0	-0.0	-0.0	-0.0	-0.0	257596.5	-26030.939453125	2928.84619140625
0.1875	-0.0	-0.0	-0.0	-0.0	-0.0	-0.0	3.989303588867188	-0.2997544705867767	-739.2808837890625	-0.0	-0.0	-0.0	-0.0	-0.0	-0.0	257275.078125	-26334.99609375	3210.0732421875
0.188	-0.0	-0.0	-0.0	-0.0	-0.0	-0.0	4.123420715332031	-1.9218084812164309	-740.4244384765625	-0.0	-0.0	-0.0	-0.0	-0.0	-0.0	256507.390625	-26822.53515625	3387.716796875
0.1885	-0.0	-0.0	-0.0	-0.0	-0.0	-0.0	4.570430278778076	-3.9496703147888175	-737.6593017578125	-0.0	-0.0	-0.0	-0.0	-0.0	-0.0	255561.3125	-27170.80078125	3476.495361328125
